HIERARCHY
ROOT RootJoint
{
    OFFSET   0.000000   0.000000   0.000000
    CHANNELS 6 Xposition Yposition Zposition Xrotation Yrotation Zrotation
    JOINT pelvis_lowerback
    {
        OFFSET   0.000000   0.093605   0.000000
        CHANNELS 3 Xrotation Yrotation Zrotation
        JOINT lowerback_torso
        {
            OFFSET   0.000000   0.100000   0.000000
            CHANNELS 3 Xrotation Yrotation Zrotation
            JOINT torso_head
            {
                OFFSET   0.000000   0.282350   0.000000
                CHANNELS 3 Xrotation Yrotation Zrotation
                End Site
                {
                    OFFSET   0.000000   0.192650   0.000000
                }
            }
            JOINT rTorso_Clavicle
            {
                OFFSET  -0.001000   0.157500   0.000000
                CHANNELS 3 Xrotation Yrotation Zrotation
                JOINT rShoulder
                {
                    OFFSET  -0.117647   0.000000   0.000000
                    CHANNELS 3 Xrotation Yrotation Zrotation
                    JOINT rElbow
                    {
                        OFFSET  -0.245000   0.000000   0.000000
                        CHANNELS 3 Xrotation Yrotation Zrotation
                        JOINT rWrist
                        {
                            OFFSET  -0.240000   0.000000   0.000000
                            CHANNELS 3 Xrotation Yrotation Zrotation
                            End Site
                            {
                                OFFSET  -0.116353  -0.002500   0.000000
                            }
                        }
                    }
                }
            }
            JOINT lTorso_Clavicle
            {
                OFFSET   0.001000   0.157500   0.000000
                CHANNELS 3 Xrotation Yrotation Zrotation
                JOINT lShoulder
                {
                    OFFSET   0.117647   0.000000   0.000000
                    CHANNELS 3 Xrotation Yrotation Zrotation
                    JOINT lElbow
                    {
                        OFFSET   0.245000   0.000000   0.000000
                        CHANNELS 3 Xrotation Yrotation Zrotation
                        JOINT lWrist
                        {
                            OFFSET   0.240000   0.000000   0.000000
                            CHANNELS 3 Xrotation Yrotation Zrotation
                            End Site
                            {
                                OFFSET   0.116353  -0.002500   0.000000
                            }
                        }
                    }
                }
            }
        }
    }
    JOINT rHip
    {
        OFFSET  -0.100000  -0.051395   0.000000
        CHANNELS 3 Xrotation Yrotation Zrotation
        JOINT rKnee
        {
            OFFSET   0.000000  -0.410000   0.000000
            CHANNELS 3 Xrotation Yrotation Zrotation
            JOINT rAnkle
            {
                OFFSET   0.000000  -0.390000   0.000000
                CHANNELS 3 Xrotation Yrotation Zrotation
                JOINT rToeJoint
                {
                    OFFSET   0.000000  -0.050000   0.130000
                    CHANNELS 3 Xrotation Yrotation Zrotation
                    End Site
                    {
                        OFFSET  -0.010000   0.002000   0.060000
                    }
                }
            }
        }
    }
    JOINT lHip
    {
        OFFSET   0.100000  -0.051395   0.000000
        CHANNELS 3 Xrotation Yrotation Zrotation
        JOINT lKnee
        {
            OFFSET   0.000000  -0.410000   0.000000
            CHANNELS 3 Xrotation Yrotation Zrotation
            JOINT lAnkle
            {
                OFFSET   0.000000  -0.390000   0.000000
                CHANNELS 3 Xrotation Yrotation Zrotation
                JOINT lToeJoint
                {
                    OFFSET   0.000000  -0.050000   0.130000
                    CHANNELS 3 Xrotation Yrotation Zrotation
                    End Site
                    {
                        OFFSET   0.010000   0.002000   0.060000
                    }
                }
            }
        }
    }
}
MOTION
Frames: 12
Frame Time:   0.008333
 -2.376719   0.925631   3.975860   0.000000   0.000000   0.000000   0.000000   0.000000   0.000000   0.000000   0.000000   0.000000   0.000000   0.000000   0.000000   0.000000   0.000000   0.000000   0.000000   0.000000   0.000000   0.000000   0.000000   0.000000   0.000000   0.000000   0.000000   0.000000   0.000000   0.000000   0.000000   0.000000   0.000000   0.000000   0.000000   0.000000   0.000000   0.000000   0.000000   0.000000   0.000000   0.000000   0.000000   0.000000   0.000000   0.000000   0.000000   0.000000   0.000000   0.000000   0.000000   0.000000   0.000000   0.000000   0.000000   0.000000   0.000000   0.000000   0.000000   0.000000   0.000000   0.000000   0.000000
 -2.375415   0.925018   3.973463   1.893343  -0.303234   0.080535  -2.022090   0.332744   0.168389   0.284472  -0.231886   0.159576  -0.167141  -0.150315  -0.368529  -0.024093  -0.169508  -0.310998  -1.478824   0.081397   0.539179   0.002738   0.511375   0.006000  -0.139399  -0.098033  -0.782801   0.090156   0.351476   0.395505   0.142702   0.334994  -1.649834   0.002082  -0.278665   0.000925   0.058010  -0.465890   0.686671  -3.316972  -0.662313  -0.064023   2.916498  -0.000905  -0.024663  -1.348609  -0.722228  -0.391812   0.146398   0.000500  -0.002162  -2.764897   0.283741  -0.465187   1.126968   0.003923  -0.000295   3.556271  -0.250849  -0.820770   0.034122   0.000366  -0.000078
 -2.373660   0.926990   3.970104   3.826345  -0.076307   0.710593  -3.829641   0.454636  -0.027558   0.554764  -0.595100   0.176730  -0.334289  -0.309617  -0.709971  -0.059994  -0.439635  -0.244926  -2.872107   0.075305   1.264026   0.007084   0.978516   0.009005  -0.321847  -0.150163  -1.433344   0.171984   0.719232   0.386128   0.288247   0.678373  -3.461262   0.004638  -0.527752   0.002021   0.127886  -0.954300   1.028054  -6.640648  -1.350690  -0.608345   5.803108  -0.005939  -0.032950  -2.591372  -1.416178  -0.789950   0.353708   0.000872  -0.003953  -5.440170   0.774406  -1.307293   1.614476   0.004102   0.002461   5.023695  -0.266918  -0.948727  -3.034640  -0.010111  -0.017089
 -2.371662   0.929907   3.966215   5.631122   0.249120   1.296200  -5.396048   0.586389  -0.028640   0.891816  -0.933729   0.203249  -0.472640  -0.457089  -1.031705  -0.092024  -0.729147  -0.102175  -4.171875   0.022708   2.025869   0.011106   1.401387   0.009969  -0.500169  -0.262254  -1.802260   0.245664   1.090024   0.159864   0.436661   1.014473  -5.339271   0.006576  -0.750618   0.003037   0.197619  -1.383468   0.916469  -9.765287  -1.965130  -0.993748   8.511844  -0.013963  -0.035244  -3.755844  -2.050232  -1.176597   0.537522   0.000822  -0.004837  -8.079411   1.157604  -2.080346   2.120694   0.004132   0.004469   7.192563  -0.480317  -1.357850  -6.828075  -0.027911  -0.028549
 -2.369476   0.933027   3.962119   7.289679   0.590546   1.804108  -6.776349   0.736676   0.121002   1.282675  -1.218982   0.293601  -0.580944  -0.593258  -1.317430  -0.119145  -1.005233   0.064050  -5.383557  -0.048441   2.771251   0.014413   1.791936   0.009861  -0.670940  -0.405422  -2.012673   0.312811   1.462936  -0.158330   0.587663   1.342358  -7.185994   0.007679  -0.950889   0.003787   0.264809  -1.756833   0.542881 -12.650872  -2.535732  -1.203195  11.041540  -0.022976  -0.034857  -4.850061  -2.630470  -1.549090   0.684976   0.000561  -0.005086 -10.637214   1.562058  -2.808377   2.702346   0.004430   0.006398   9.598836  -0.715344  -1.856051 -10.804214  -0.046317  -0.040991
 -2.367139   0.936063   3.958017   8.828272   1.011092   2.260108  -8.031026   0.871799   0.358116   1.690789  -1.473822   0.440911  -0.667044  -0.720491  -1.571833  -0.141735  -1.269825   0.244485  -6.512876  -0.135033   3.486866   0.016956   2.153978   0.009243  -0.833886  -0.560526  -2.140307   0.373853   1.827376  -0.501524   0.739624   1.655831  -8.950526   0.008075  -1.133255   0.004218   0.328304  -2.089991   0.057825 -15.304180  -3.079600  -1.295474  13.403641  -0.031485  -0.031338  -5.877073  -3.163509  -1.907588   0.806910   0.000242  -0.004914 -13.064842   2.050506  -3.542092   3.372843   0.005119   0.009074  12.043231  -0.894447  -2.367287 -14.823802  -0.061601  -0.061023
 -2.364699   0.938839   3.953956  10.260646   1.509052   2.678215  -9.182211   0.996399   0.651533   2.093883  -1.700009   0.634154  -0.739951  -0.839138  -1.801625  -0.160592  -1.520476   0.431194  -7.565480  -0.232905   4.167516   0.018785   2.490112   0.008377  -0.989958  -0.721202  -2.218314   0.429090   2.179762  -0.832257   0.890894   1.953858 -10.609540   0.007929  -1.299964   0.004369   0.387032  -2.389963  -0.457466 -17.748296  -3.598450  -1.302562  15.616197  -0.038832  -0.025671  -6.839764  -3.653301  -2.251619   0.911541  -0.000072  -0.004518 -15.372301   2.558182  -4.277040   4.008440   0.005727   0.011315  14.426609  -1.081262  -2.858503 -18.162037  -0.068023  -0.076056
 -2.362636   0.940837   3.949244  11.573131   2.216283   3.608486 -10.050384   1.082696   0.101740   2.487029  -1.848131   0.822615  -0.840429  -0.922647  -1.888161  -0.293666  -1.869312   0.607002  -8.899078  -0.164711   5.061872   0.020996   2.899085   0.008710  -1.051450  -1.122465  -2.038461   0.294369   2.446076  -1.000221   1.030947   2.171201 -11.958962   0.006645  -1.340529   0.003704   0.332251  -2.616655  -0.800385 -19.686475  -3.985754  -1.977763  16.549531  -0.035524  -0.019722  -7.493727  -4.377120  -2.765168   0.989984  -0.000077  -0.004138 -18.506366   2.926521  -5.435154   7.123137   0.010072   0.022840  14.209020  -1.158847  -3.107143 -16.534814  -0.050449  -0.050862
 -2.360812   0.942038   3.944492  12.756426   2.677516   4.651811 -10.772909   1.324432  -0.550151   2.931347  -1.863464   0.901421  -0.918618  -0.995223  -1.991833  -0.421638  -2.110091   0.773901 -10.151457  -0.058032   5.915501   0.022144   3.306040   0.008429  -1.112456  -1.419602  -1.772496   0.169331   2.708318  -1.097617   1.165644   2.382092 -13.170344   0.005527  -1.372029   0.003134   0.272207  -2.778724  -1.010106 -21.420466  -4.283176  -2.776443  17.260500  -0.031607  -0.016715  -8.118462  -5.048505  -3.254801   1.065108  -0.000067  -0.003943 -21.559440   3.337862  -6.489743  10.281342   0.010070   0.022877  14.012497  -1.228976  -3.338614 -15.055017  -0.037936  -0.036431
 -2.359187   0.942458   3.939813  13.846715   2.989740   5.719545 -11.393449   1.641741  -1.213270   3.391596  -1.792010   0.914459  -0.982702  -1.062624  -2.102452  -0.542942  -2.269063   0.906619 -11.325624   0.072757   6.705639   0.022408   3.704314   0.007803  -1.164110  -1.608361  -1.513448   0.056229   2.971431  -1.167815   1.297570   2.590102 -14.285122   0.004574  -1.396363   0.002637   0.214749  -2.902660  -1.160021 -23.004813  -4.532394  -3.606166  17.897716  -0.028004  -0.015130  -8.709351  -5.671873  -3.719253   1.131108  -0.000049  -0.003773 -24.493382   3.762198  -7.375921  13.243726   0.006044   0.017179  13.831212  -1.294001  -3.554652 -13.691721  -0.029688  -0.028158
 -2.357728   0.942115   3.935268  14.857549   3.231330   6.785303 -11.933386   1.993753  -1.869939   3.850007  -1.672174   0.881711  -1.037396  -1.125868  -2.211551  -0.658398  -2.374377   1.002713 -12.426405   0.213178   7.430865   0.022003   4.088963   0.007009  -1.208823  -1.715912  -1.288241  -0.046700   3.229071  -1.226875   1.426064   2.791590 -15.320819   0.003770  -1.415442   0.002208   0.160060  -2.999544  -1.283389 -24.448250  -4.741818  -4.445586  18.491925  -0.024786  -0.014164  -9.266250  -6.250876  -4.159369   1.190806  -0.000024  -0.003592 -27.310364   4.190143  -8.099865  15.989766  -0.000525   0.010233  13.661076  -1.353786  -3.756180 -12.443128  -0.024648  -0.023077
 -2.356411   0.941021   3.930898  15.796403   3.447331   7.837631 -12.408388   2.359131  -2.514181   4.297217  -1.527288   0.813370  -1.085092  -1.185111  -2.316303  -0.768226  -2.445409   1.066022 -13.457976   0.353561   8.094895   0.021127   4.456658   0.006163  -1.248690  -1.768166  -1.101589  -0.140931   3.477269  -1.281268   1.550454   2.984101 -16.287136   0.003101  -1.430810   0.001840   0.107980  -3.077365  -1.394354 -25.757016  -4.916111  -5.286141  19.053717  -0.021929  -0.013427  -9.790275  -6.788629  -4.576129   1.245623   0.000004  -0.003389 -30.011946   4.615238  -8.678361  18.529494  -0.008252   0.004105  13.500979  -1.408369  -3.944078 -11.301450  -0.021815  -0.019576
